<?xml version="1.0" standalone="no"?><!DOCTYPE svg PUBLIC "-//W3C//DTD SVG 1.1//EN" "http://www.w3.org/Graphics/SVG/1.1/DTD/svg11.dtd"><svg  viewBox="0 0 1024 1024"  xmlns="http://www.w3.org/2000/svg"><path d="M120.3 901.8c-7.8 0-15.7-2-22.9-6.3-21.2-12.6-28.1-40.1-15.4-61.2l243.9-408.1c33.4-57.8 102.7-83.5 167.7-67.1l51.4-89c-7.6-10.1-13.4-21.5-17.2-33.8-8.6-28-5.4-57.1 9-82l2.6-4.5c29-50.3 95.2-66.6 147.6-36.4l120.9 69.8c24.8 14.3 43.1 37.1 51.3 64 8.6 28 5.4 57.1-9 82l-2.6 4.5c-21.5 37.2-63.2 55.8-104.6 50.8l-51.4 89c46.9 48.3 59.2 121.2 25.6 179.5l-33.5 57.3c-12.4 21.3-39.8 28.4-61.1 16-21.3-12.4-28.4-39.8-16-61.1l33.4-57.1c16.3-28.2 3.6-66.4-28.4-84.9-21.3-12.3-28.8-39.7-16.5-61.1L683.5 309c6-10.3 15.8-17.8 27.3-20.8s23.8-1.3 34 4.7c9.4 5.4 21.1 3.7 25.5-3.7l2.6-4.5c2.4-4.1 1.8-8.4 0.9-11.3-0.9-3-3.5-8.7-10.5-12.7l-120.9-69.8c-9.6-5.5-21.3-3.8-25.6 3.7l-2.6 4.5c-2.4 4.1-1.8 8.4-0.9 11.3 0.9 3 3.5 8.7 10.5 12.7 21.3 12.3 28.7 39.6 16.3 61l-88.4 153.1c-5.9 10.3-15.7 17.7-27.1 20.8-11.5 3.1-23.6 1.5-33.9-4.5-32-18.5-71.4-10.4-87.9 18.1L158.7 880c-8.4 14-23.2 21.8-38.4 21.8z" fill="#ffffff" p-id="17755"></path><path d="M751.7 922.3c-49.1 0-81.5-22.9-107.4-41.3-24.1-17.1-43.2-30.6-76.9-30.6-11.6 0-17.5 4.1-35.4 20.2-23.1 20.6-58 51.8-124.4 51.8-61.6 0-94.3-26.7-118.3-46.2-19.7-16.1-31.7-25.8-60.6-25.8-59 0-76 38.5-77.7 42.9-9 22.6-34.5 34.3-57.3 25.8C70.9 910.6 59 885.9 67 863c13.1-37.9 62-102 161.6-102 60.7 0 93.3 26.5 117 45.9 20 16.3 32.1 26.1 61.9 26.1 32.3 0 45.3-11.6 64.9-29.1 20.2-18.1 48-42.9 94.9-42.9 62.2 0 100.6 27.2 128.6 47.1 23.1 16.4 36 24.9 55.8 24.9 47.8 0 80.6-9.3 140.7-39.6 22-11.1 48.8-2.3 60 19.7s2.3 48.8-19.7 60c-63.2 31.9-110.7 49.2-181 49.2z" fill="#ececec" ></path></svg>