<?xml version="1.0" standalone="no"?><!DOCTYPE svg PUBLIC "-//W3C//DTD SVG 1.1//EN" "http://www.w3.org/Graphics/SVG/1.1/DTD/svg11.dtd"><svg  viewBox="0 0 1024 1024" xmlns="http://www.w3.org/2000/svg" ><path d="M849.17248 0h-30.78656s-128.99328 138.81856-172.46208 179.83488C578.03776 243.90144 589.8752 267.58144 470.29248 303.104 332.94848 369.408 36.95104 717.49632 51.15904 745.91744c14.208 28.416 279.424 314.94144 310.20544 268.36992 30.78656-46.5664 279.424-256.53248 355.2-448.33792 31.56992-200.48896 165.75488-319.67744 236.79488-397.81888C1024.39936 89.984 849.17248 0 849.17248 0z m88.40192 141.29152c-6.5536 22.94272-64.15872 72.73472-109.30688 123.80672l8.27392 7.22432-32.8448 27.40736-2.10944-1.91488C768.00512 343.04 735.232 403.27168 720.24064 439.61344l7.41376 6.38464-19.74784 31.60064-0.41472-0.34816c-18.37056 63.04256-23.22432 113.42848-90.38848 204.72832a3156.00384 3156.00384 0 0 1-45.568 60.32896l0.01536 15.65184-27.32544 19.1744c-50.62144 63.66208-105.81504 128.19456-147.76832 167.808l-12.01152 14.06464-1.67424-1.62816c-11.35616 9.86624-21.41696 17.37216-29.696 21.78048-35.51744 18.944-269.94688-237.98272-269.94688-237.98272s13.02528-16.13312 34.27328-41.71264l-10.34752-10.05056 43.8016-37.61664 2.88256 4.37248c33.3056-39.30112 74.89024-87.29088 116.8384-132.91008l-8.76032 0.07168 17.3312-36.3776 25.76896-0.36352c28.40064-29.73184 55.9616-56.96 80.13824-78.11072 79.24736-69.34016 111.29344-72.50432 138.69056-84.91008l-5.94432-4.97152 28.5952-28.60032 10.79808 9.29792c1.024-1.06496 2.03776-2.13504 3.09248-3.29216 48.08704-30.6944 86.31808-69.94432 120.39168-108.22656l-6.45632-5.86752 24.99072-29.56288 7.0912 6.19008c38.89664-44.66688 71.83872-82.72384 71.83872-82.72384l52.09088-41.47712c-0.01536 0 121.55392 57.23136 107.3408 106.9568z" fill="#ececec"></path><path d="M706.28864 158.53568l-7.0912-6.19008-24.99072 29.56288 6.45632 5.86752a2603.61728 2603.61728 0 0 0 15.7952-17.95584l9.8304-11.28448zM801.59232 297.81504l2.10944 1.91488 32.8448-27.40736-8.27392-7.22432a511.7952 511.7952 0 0 0-20.11136 24.04864 434.8672 434.8672 0 0 0-6.56896 8.66816z" fill="#ececec"></path><path d="M696.45824 169.81504a2603.61728 2603.61728 0 0 1-15.7952 17.95584l120.92416 110.04416c2.19136-2.94912 4.3776-5.8624 6.56896-8.66816a511.7952 511.7952 0 0 1 20.11136-24.04864l-121.97888-106.56256-9.8304 11.27936zM707.49696 477.25056l0.41472 0.34816 19.74784-31.60064-7.41376-6.38464c-1.90464 4.608-3.57888 8.91392-4.864 12.672a545.03936 545.03936 0 0 0-7.8848 24.96512zM557.184 299.2896l-10.79808-9.29792-28.5952 28.60032 5.94432 4.97152c10.9824-4.97152 21.22752-11.46368 33.44896-24.27392z" fill="#ececec"></path><path d="M523.73504 323.56352l183.76192 153.69216c2.3552-8.07936 4.92032-16.35328 7.8848-24.96512 1.28512-3.75808 2.95936-8.064 4.864-12.672l-163.06176-140.32384c-12.22144 12.80512-22.46656 19.29728-33.44896 24.2688z" fill="#ececec"></path><path d="M279.1424 486.95296l-17.3312 36.3776 8.76032-0.07168a2625.55136 2625.55136 0 0 1 34.33472-36.67456l-25.76384 0.36864zM571.55072 757.95968l-0.01536-15.65184a3356.3648 3356.3648 0 0 1-27.31008 34.82624l27.32544-19.1744z" fill="#221714"></path><path d="M535.6032 561.21344l-39.1168-4.736V483.86048l-191.58016 2.72896a2569.43104 2569.43104 0 0 0-34.33472 36.67456l187.8784-1.51552 13.21472 73.12384 55.74656 3.47648 13.56288 181.0688 3.2512-2.2784a3356.3648 3356.3648 0 0 0 27.31008-34.82624l-0.2048-181.0944h-35.72736zM150.85056 651.79648l-43.8016 37.61664 10.34752 10.05056c10.34752-12.45184 22.63552-27.12576 36.33152-43.2896l-2.87744-4.3776zM384.44544 959.01184l12.01152-14.06464a438.99904 438.99904 0 0 1-13.68064 12.43648l1.66912 1.62816z" fill="#ececec"></path><path d="M185.89184 705.09056l-32.15872-48.9216a5808.44032 5808.44032 0 0 0-36.33152 43.2896l265.37472 257.92a433.2544 433.2544 0 0 0 13.68064-12.43648l20.11136-23.56224-230.67648-216.28928z" fill="#ececec"></path></svg>